<svg id="apple" xmlns="http://www.w3.org/2000/svg" width="134.316" height="137.075" viewBox="0 0 134.316 137.075">
  <g id="XMLID_8_" transform="matrix(0.978, -0.208, 0.208, 0.978, -195.235, -124.742)">
    <g id="XMLID_2_" transform="translate(162.524 210.75)">
      <path id="XMLID_289_" d="M213.675,326.913a13.628,13.628,0,0,1,10.952,0c4.455,1.949,11.973,2.831,23.482-2.506,21.533-9.931,36.384-67.663,13.319-79.589a42.443,42.443,0,0,0-42.278,1.578,42.443,42.443,0,0,0-42.278-1.578c-23.065,11.927-8.214,69.658,13.319,79.589C201.7,329.744,209.22,328.862,213.675,326.913Z" transform="translate(-165.247 -239.897)" fill="#f04d49"/>
    </g>
    <g id="XMLID_22_" transform="translate(220.883 211.216)">
      <path id="XMLID_317_" d="M315.55,324.945c21.533-9.931,36.384-67.663,13.319-79.589a44.123,44.123,0,0,0-13.644-4.455c10.488,19.306,11.927,70.029-20.048,84.091-1.439.6-2.831,1.3-4.177,1.949C295.27,329.214,303.02,330.746,315.55,324.945Z" transform="translate(-291 -240.9)" fill="#e53a39"/>
    </g>
    <g id="XMLID_5_" transform="translate(160.165 208.341)">
      <path id="XMLID_290_" d="M229.747,328.076a21.753,21.753,0,0,1-7.657-1.3,16.665,16.665,0,0,0-11.231,0h0c-6.636,2.413-14.85,1.439-24.364-2.97-15.175-7.008-25.849-33.738-26.313-54.344-.325-14.572,4.27-25.06,12.9-29.515a44.594,44.594,0,0,1,43.391.882,44.467,44.467,0,0,1,43.391-.882c8.632,4.455,13.226,14.943,12.9,29.515-.464,20.605-11.138,47.336-26.313,54.344C240.281,326.637,234.712,328.076,229.747,328.076Zm-13.319-7.054a20.373,20.373,0,0,1,7.24,1.3c5.337,1.949,12.53.975,20.744-2.784,12.066-5.569,23.065-29,23.529-50.12.186-7.332-.975-20.327-10.3-25.2a39.686,39.686,0,0,0-39.818,1.439,2.453,2.453,0,0,1-2.738,0,39.813,39.813,0,0,0-39.818-1.439c-9.374,4.826-10.488,17.867-10.3,25.2.464,21.116,11.463,44.551,23.529,50.12,8.214,3.805,15.407,4.78,20.744,2.784h0A20.124,20.124,0,0,1,216.428,321.022Z" transform="translate(-160.165 -234.706)" fill="#561114"/>
    </g>
    <g id="XMLID_6_" transform="translate(213.875 187.223)">
      <path id="XMLID_316_" d="M276.086,219.5c0,.046-.046-.51-.093-1.346s-.093-2.042-.093-3.481.046-3.109.139-4.919c.139-1.81.278-3.713.557-5.615.139-.975.278-1.9.464-2.831a25.984,25.984,0,0,1,.557-2.738c.186-.882.371-1.717.6-2.552.232-.789.418-1.578.65-2.228.232-.7.418-1.3.6-1.9.232-.557.418-1.021.557-1.439.325-.789.464-1.253.464-1.253l3.388,1.346s-.139.418-.418,1.16c-.139.371-.278.835-.464,1.346-.139.51-.325,1.114-.51,1.764a20.691,20.691,0,0,0-.51,2.135,17.807,17.807,0,0,0-.464,2.367c-.139.835-.325,1.671-.418,2.552-.139.882-.232,1.763-.325,2.692-.186,1.81-.278,3.62-.325,5.29,0,1.717,0,3.295.046,4.641s.139,2.46.232,3.249c.093.743.139,1.207.139,1.207Z" transform="translate(-275.9 -189.2)" fill="#561114"/>
    </g>
    <g id="XMLID_4_" transform="translate(188.954 187.931)">
      <path id="XMLID_285_" d="M249.673,206.261S244.986,188.811,222.2,190.9C222.246,190.9,226.191,214.521,249.673,206.261Z" transform="translate(-222.2 -190.726)" fill="#54b248"/>
    </g>
    <g id="XMLID_7_" transform="translate(186.56 185.511)">
      <path id="XMLID_286_" d="M237.627,207.6a19.119,19.119,0,0,1-9.838-2.6c-8.725-5.151-10.627-16.057-10.72-16.521a2.406,2.406,0,0,1,.464-1.856,2.638,2.638,0,0,1,1.671-.928c24.5-2.228,29.933,16.892,29.979,17.078a2.379,2.379,0,0,1-1.531,2.877A29.226,29.226,0,0,1,237.627,207.6ZM222.5,190.332c1.021,3.017,3.249,7.936,7.75,10.627,3.62,2.135,8.168,2.46,13.5,1.021C241.9,197.99,236.327,190.1,222.5,190.332Z" transform="translate(-217.041 -185.511)" fill="#561114"/>
    </g>
  </g>
</svg>
