<svg id="banana" xmlns="http://www.w3.org/2000/svg" width="112.962" height="123.688" viewBox="0 0 112.962 123.688">
  <g id="XMLID_109_" transform="translate(2.435 2.339)">
    <path id="XMLID_23_" d="M1007.777,628.309s35.54-2.385,55.834-24.41,27.4-47.932,25.158-56.583-5.752-13.327-5.752-13.327l9.446-4.489s1.216,12.579,6.126,17.489,29.04,22.633-4.4,67.151-61.493,34.745-71.968,29.788-19.547-7.482-18.518-10.709C1004.738,630.086,1005.346,628.59,1007.777,628.309Z" transform="translate(-1003.629 -529.5)" fill="#f2b91b"/>
  </g>
  <g id="XMLID_121_" transform="translate(2.515 2.386)">
    <path id="XMLID_295_" d="M1027.883,634.769c51.579-2.619,74.54-43.209,83.518-66.263-1.777-12.345-10.007-18.752-12.673-21.417-4.91-4.91-6.126-17.489-6.126-17.489l-9.446,4.489s3.507,4.676,5.752,13.327-4.863,34.558-25.158,56.583-55.835,24.41-55.835,24.41c-2.432.234-3.04,1.73-4.068,4.957a.8.8,0,0,0-.047.327A110.75,110.75,0,0,0,1027.883,634.769Z" transform="translate(-1003.8 -529.6)" fill="#efdf1a"/>
  </g>
  <g id="XMLID_110_">
    <path id="XMLID_24_" d="M1038.627,648.186a46.534,46.534,0,0,1-20.155-4.723c-2.759-1.309-5.471-2.478-7.856-3.46-8.043-3.414-13.374-5.705-11.971-10.1.982-3.04,1.964-6.173,6.126-6.594h.094c.327-.047,34.838-2.619,54.245-23.662,19.827-21.557,26.561-46.809,24.6-54.338a41.656,41.656,0,0,0-5.331-12.486,2.542,2.542,0,0,1-.421-2.011,2.474,2.474,0,0,1,1.309-1.59l9.446-4.489a2.292,2.292,0,0,1,2.2.094,2.383,2.383,0,0,1,1.216,1.87c.327,3.273,1.917,12.486,5.471,16.04.281.281.608.608,1.029.982,6.827,6.36,27.543,25.766-5.191,69.3C1075.85,636.308,1057.192,648.186,1038.627,648.186Zm-35.259-17.209c1.029,1.122,5.518,3.04,9.119,4.583,2.432,1.029,5.191,2.2,8.043,3.554,22.773,10.755,46.669.7,69.022-29.086,30.115-40.076,12.439-56.676,5.752-62.9-.421-.421-.842-.795-1.122-1.076-3.834-3.834-5.612-11.223-6.36-15.619l-4.068,1.917a49.255,49.255,0,0,1,4.583,11.691c2.572,9.82-5.1,36.428-25.719,58.781-20.529,22.306-55.414,25.065-57.424,25.205C1004.49,628.125,1004.256,628.218,1003.368,630.977Z" transform="translate(-998.421 -524.498)" fill="#561114"/>
  </g>
</svg>
