<svg id="carrot" xmlns="http://www.w3.org/2000/svg" width="174.604" height="149.765" viewBox="0 0 174.604 149.765">
  <g id="Group_31" data-name="Group 31" transform="translate(-654.34 -122.906) rotate(-69)">
    <g id="XMLID_19_" transform="translate(29.157 689.7)">
      <g id="XMLID_21_" transform="translate(64.685 15.616)">
        <path id="XMLID_272_" d="M1163.53,225.955s5.656-10.171,13.542-10.388,21.157,3.644,20.45-3.263-12.618-14.576-21.374-9.627-14.848,22.353-14.848,22.353" transform="translate(-1161.3 -201.1)" fill="#54b248"/>
      </g>
      <g id="XMLID_20_" transform="translate(61.966 12.67)">
        <path id="XMLID_273_" d="M1163.86,224.9l-3.155-1.74-4.406-1.523c.272-.761,6.527-18.546,16.153-23.985,4.84-2.719,10.823-2.611,16.479.272,5.167,2.665,8.811,7.234,9.3,11.585a6,6,0,0,1-1.632,5.058c-2.937,2.991-8.7,2.447-14.739,1.849a66.186,66.186,0,0,0-6.907-.435C1169.843,216.2,1165.22,222.505,1163.86,224.9Zm16.207-23.332a9.507,9.507,0,0,0-4.677,1.2c-3.263,1.849-6.309,6.037-8.7,10.334a14.536,14.536,0,0,1,8.1-2.937,75.721,75.721,0,0,1,7.614.435c3.1.272,8.92.87,10.007-.109v-.326c-.217-2.339-2.774-5.221-6.146-6.962A14.258,14.258,0,0,0,1180.067,201.566Z" transform="translate(-1156.3 -195.683)" fill="#561114"/>
      </g>
      <g id="XMLID_17_" transform="translate(51.283 2.921)">
        <path id="XMLID_271_" d="M1149.028,214.112s4.351-10.823-.435-17.078-16.1-14.2-10.334-17.948c5.82-3.753,19.253.653,20.939,10.606s-8.1,25.617-8.1,25.617Z" transform="translate(-1136.659 -177.758)" fill="#54b248"/>
      </g>
      <g id="XMLID_14_" transform="translate(2.904 35.237)">
        <path id="XMLID_264_" d="M1078.052,245.674s-32.415,87.347-30.24,99.149c2.23,11.8,75.164-62.165,76.415-81.8C1125.478,243.335,1087.624,226.366,1078.052,245.674Z" transform="translate(-1047.707 -237.176)" fill="#f8951d"/>
      </g>
      <g id="XMLID_26_" transform="translate(2.946 48.086)">
        <path id="XMLID_293_" d="M1056.495,319c-5.384,17.132-9.464,32.2-8.593,36.6,2.23,11.8,75.164-62.165,76.415-81.8.272-4.623-1.631-9.137-4.786-13C1110.774,277.28,1090.106,309.1,1056.495,319Z" transform="translate(-1047.784 -260.8)" fill="#ed8022"/>
      </g>
      <g id="XMLID_15_" transform="translate(0 32.357)">
        <path id="XMLID_268_" d="M1046.954,346.65a4.36,4.36,0,0,1-4.46-3.644c-2.284-12.237,27.031-91.7,30.349-100.726.054-.109.054-.218.109-.272,4.3-8.7,14.358-12.128,26.161-8.974,13.216,3.535,26.432,14.9,25.616,27.792-.816,12.944-26.433,41.443-34.264,49.874-3.372,3.59-33.068,35.3-43.184,35.95C1047.226,346.6,1047.117,346.65,1046.954,346.65Zm31.382-102.195c-11.856,31.871-29.7,84.084-30.076,95.94,4.949-2.067,19.308-13.651,37.8-33.557,19.2-20.667,32.415-39.322,32.85-46.447.6-9.735-10.551-18.873-21.266-21.755C1094.217,237.765,1082.85,235.535,1078.335,244.455Z" transform="translate(-1042.367 -231.881)" fill="#561114"/>
      </g>
      <g id="XMLID_16_" transform="translate(48.336 0)">
        <path id="XMLID_265_" d="M1151.125,214.382l-3.97-2.447-3.317-1.36,2.719,1.088-2.719-1.088c1.033-2.611,3.046-10.171-.054-14.2a63.7,63.7,0,0,0-4.677-5.112c-4.242-4.351-8.267-8.484-7.832-12.618a6.108,6.108,0,0,1,2.937-4.46c3.644-2.393,9.518-2.393,14.848-.054,5.82,2.556,9.681,7.179,10.605,12.618C1161.4,197.685,1151.56,213.729,1151.125,214.382Zm-10.116-36.114a6.5,6.5,0,0,0-3.59.87,3.377,3.377,0,0,0-.326.272c-.109,1.36,4.025,5.548,6.2,7.777a60.909,60.909,0,0,1,5.167,5.656,15.223,15.223,0,0,1,2.828,8.158c1.794-4.569,3.154-9.518,2.556-13.216-.816-4.949-5.276-7.4-7.125-8.213A14.415,14.415,0,0,0,1141.008,178.268Z" transform="translate(-1131.241 -172.387)" fill="#561114"/>
      </g>
    </g>
  </g>
</svg>
