<svg id="grapes" xmlns="http://www.w3.org/2000/svg" width="116.531" height="149.872" viewBox="0 0 116.531 149.872">
  <g id="Group_35" data-name="Group 35" transform="translate(-293.888 -605.879) rotate(14)">
    <g id="XMLID_87_" transform="translate(462.9 509.013)">
      <g id="XMLID_66_" transform="translate(45.188 35.952)">
        <circle id="XMLID_312_" cx="17.956" cy="17.956" r="17.956" fill="#a92280"/>
      </g>
      <g id="XMLID_91_" transform="translate(49.072 35.941)">
        <path id="XMLID_311_" d="M581.448,587.915a3.747,3.747,0,0,0-.137,3.518c3.61,8.818-8.133,16.357-10.646,23.8a10.619,10.619,0,0,0-.366,1.645,17.951,17.951,0,0,0,14.027,6.762c.594,0,1.142-.046,1.736-.091-.091-.046-.137-.091-.228-.137-3.7-1.873-7.082-3.747-4.523-7.722,1.736-2.741,3.792-5.209,5.391-8.087,3.2-5.711,6.26-12.108,3.564-18.642a1.985,1.985,0,0,0-.183-.32,17.372,17.372,0,0,0-5.8-.96A12.056,12.056,0,0,0,581.448,587.915Z" transform="translate(-570.3 -587.674)" fill="#88236c"/>
      </g>
      <g id="XMLID_59_" transform="translate(42.812 33.576)">
        <path id="XMLID_244_" d="M576.932,623.165a20.332,20.332,0,1,1,20.332-20.332A20.377,20.377,0,0,1,576.932,623.165Zm0-35.958a15.626,15.626,0,1,0,15.626,15.626A15.619,15.619,0,0,0,576.932,587.206Z" transform="translate(-556.6 -582.5)" fill="#561114"/>
      </g>
      <g id="XMLID_67_" transform="translate(9.412 35.952)">
        <circle id="XMLID_310_" cx="17.956" cy="17.956" r="17.956" fill="#a92280"/>
      </g>
      <g id="XMLID_92_" transform="translate(20.069 35.907)">
        <path id="XMLID_309_" d="M525.683,609.76a5.67,5.67,0,0,0-1.736.411c-2.6-6.488-10.6-10.235-6.945-18.368a4.722,4.722,0,0,0,.046-3.929,15.961,15.961,0,0,0-2.97-.274,16.841,16.841,0,0,0-5.711.959c-2.01,5.209-2.239,10.829.411,16.037,1.462,2.833,5.3,5.437,6.214,8.361,1.1,3.564-3.061,6.534-4.752,9.275-.183.274-.274.548-.411.777a18.664,18.664,0,0,0,4.249.548,18.268,18.268,0,0,0,7.9-1.828,19.664,19.664,0,0,0,1.782-2.97,3.93,3.93,0,0,0,1.919.411.275.275,0,0,0,.183-.046,17.548,17.548,0,0,0,4.341-5.666A4.6,4.6,0,0,0,525.683,609.76Z" transform="translate(-506.823 -587.6)" fill="#88236c"/>
      </g>
      <g id="XMLID_54_" transform="translate(7.036 33.576)">
        <path id="XMLID_241_" d="M498.632,623.165a20.332,20.332,0,1,1,20.332-20.332A20.377,20.377,0,0,1,498.632,623.165Zm0-35.958a15.626,15.626,0,1,0,15.626,15.626A15.619,15.619,0,0,0,498.632,587.206Z" transform="translate(-478.3 -582.5)" fill="#561114"/>
      </g>
      <g id="XMLID_73_" transform="translate(14.986 95.03)">
        <circle id="XMLID_308_" cx="17.682" cy="17.682" r="17.682" fill="#a92280"/>
      </g>
      <g id="XMLID_93_" transform="translate(19.738 95.03)">
        <path id="XMLID_307_" d="M536.758,734.774a39.912,39.912,0,0,0-5.072-9.549,26.534,26.534,0,0,0-8.361-7.676,18.665,18.665,0,0,0-4.249-.548,17.448,17.448,0,0,0-12.976,5.711,2.227,2.227,0,0,0,.548.046c7.63.137,13.707,2.1,18.093,8.727,3.518,5.391,5.711,11.605,4.112,17.911A17.672,17.672,0,0,0,536.758,734.774Z" transform="translate(-506.1 -717)" fill="#88236c"/>
      </g>
      <g id="XMLID_69_" transform="translate(12.611 92.654)">
        <path id="XMLID_238_" d="M510.558,751.916a20.058,20.058,0,1,1,20.058-20.058A20.085,20.085,0,0,1,510.558,751.916Zm0-35.41a15.352,15.352,0,1,0,15.352,15.352A15.385,15.385,0,0,0,510.558,716.506Z" transform="translate(-490.5 -711.8)" fill="#561114"/>
      </g>
      <g id="XMLID_76_" transform="translate(51.493 71.545)">
        <circle id="XMLID_306_" cx="16.586" cy="16.586" r="16.586" fill="#a92280"/>
      </g>
      <g id="XMLID_90_" transform="translate(58.849 71.545)">
        <path id="XMLID_305_" d="M592.659,695.619a4.722,4.722,0,0,0-.959.32,16.578,16.578,0,0,0,16.677,1.005c7.859-5.94,9.869-15.078,6.351-23.942a16.512,16.512,0,0,0-13.8-7.4c-.366,0-.731.046-1.1.046a3.219,3.219,0,0,0,.731.868C610.8,676.292,606.412,692.375,592.659,695.619Z" transform="translate(-591.7 -665.6)" fill="#88236c"/>
      </g>
      <g id="XMLID_75_" transform="translate(49.163 69.215)">
        <path id="XMLID_235_" d="M589.416,698.332a18.916,18.916,0,1,1,18.916-18.916A18.954,18.954,0,0,1,589.416,698.332Zm0-33.126a14.21,14.21,0,1,0,14.21,14.21A14.225,14.225,0,0,0,589.416,665.206Z" transform="translate(-570.5 -660.5)" fill="#561114"/>
      </g>
      <g id="XMLID_80_" transform="translate(42.309 95.03)">
        <circle id="XMLID_304_" cx="16.586" cy="16.586" r="16.586" fill="#a92280"/>
      </g>
      <g id="XMLID_89_" transform="translate(53.184 95.076)">
        <path id="XMLID_303_" d="M601.6,733.64a16.6,16.6,0,0,0-15.535-16.54,4.336,4.336,0,0,0,1.371,2.513c6.26,5.985,9.732,13.57,4.112,21.474a20.017,20.017,0,0,1-12.245,8.041,15.908,15.908,0,0,0,5.757,1.051A16.536,16.536,0,0,0,601.6,733.64Z" transform="translate(-579.3 -717.1)" fill="#88236c"/>
      </g>
      <g id="XMLID_79_" transform="translate(39.979 92.7)">
        <path id="XMLID_127_" d="M569.316,749.732a18.916,18.916,0,1,1,18.916-18.916A18.954,18.954,0,0,1,569.316,749.732Zm0-33.171a14.21,14.21,0,1,0,14.21,14.21A14.225,14.225,0,0,0,569.316,716.56Z" transform="translate(-550.4 -711.9)" fill="#561114"/>
      </g>
      <g id="XMLID_78_" transform="translate(2.33 66.93)">
        <circle id="XMLID_302_" cx="16.586" cy="16.586" r="16.586" fill="#a92280"/>
      </g>
      <g id="XMLID_95_" transform="translate(19.591 67.479)">
        <path id="XMLID_301_" d="M519.632,680.733a22.4,22.4,0,0,1-4.066-18.413,4.635,4.635,0,0,0-.137-2.513,15.939,15.939,0,0,0-6.214-3.107,3.921,3.921,0,0,0-2.65,3.107,32.3,32.3,0,0,0,6.4,27.506A16.512,16.512,0,0,0,519.632,680.733Z" transform="translate(-505.778 -656.7)" fill="#88236c"/>
      </g>
      <g id="XMLID_77_" transform="translate(0 64.6)">
        <path id="XMLID_119_" d="M481.816,688.232a18.916,18.916,0,1,1,18.916-18.916A18.954,18.954,0,0,1,481.816,688.232Zm0-33.171a14.21,14.21,0,1,0,14.21,14.21A14.225,14.225,0,0,0,481.816,655.06Z" transform="translate(-462.9 -650.4)" fill="#561114"/>
      </g>
      <g id="XMLID_82_" transform="translate(27.369 24.347)">
        <circle id="XMLID_300_" cx="17.956" cy="17.956" r="17.956" fill="#a92280"/>
      </g>
      <g id="XMLID_98_" transform="translate(41.396 24.301)">
        <path id="XMLID_299_" d="M557.429,562.2a16.212,16.212,0,0,0-3.929.457,3.9,3.9,0,0,0,2.33,2.741c11.651,5.209,14.941,25.4,4.889,32.486a17.994,17.994,0,0,0,14.667-17.637,20.679,20.679,0,0,0-.32-3.381c-.228-.959-.5-1.873-.777-2.833A17.881,17.881,0,0,0,557.429,562.2Z" transform="translate(-553.5 -562.2)" fill="#88236c"/>
      </g>
      <g id="XMLID_81_" transform="translate(24.993 21.925)">
        <path id="XMLID_111_" d="M537.932,597.664a20.332,20.332,0,1,1,20.332-20.332A20.377,20.377,0,0,1,537.932,597.664Zm0-35.913a15.626,15.626,0,1,0,15.626,15.626A15.619,15.619,0,0,0,537.932,561.752Z" transform="translate(-517.6 -557)" fill="#561114"/>
      </g>
      <g id="XMLID_55_" transform="translate(29.196 64.554)">
        <circle id="XMLID_298_" cx="16.129" cy="16.129" r="16.129" fill="#a92280"/>
      </g>
      <g id="XMLID_88_" transform="translate(34.725 64.554)">
        <path id="XMLID_297_" d="M549.5,682.6a16.126,16.126,0,0,0,16.129-16.129,15.9,15.9,0,0,0-2.239-8.179,5.191,5.191,0,0,0-2.056,0,17.477,17.477,0,0,0-3.153-5.437,16.175,16.175,0,0,0-11.7-2.285,4.982,4.982,0,0,0,2.741,6.717c4.752,1.782,4.569,8.727,2.879,12.474a12.157,12.157,0,0,1-9.961,7.128,4.893,4.893,0,0,0-3.244,1.691A15.89,15.89,0,0,0,549.5,682.6Z" transform="translate(-538.9 -650.3)" fill="#88236c"/>
      </g>
      <g id="XMLID_64_" transform="translate(26.82 62.179)">
        <path id="XMLID_74_" d="M540.1,682.109a18.5,18.5,0,1,1,18.5-18.5A18.544,18.544,0,0,1,540.1,682.109Zm0-32.3a13.8,13.8,0,1,0,13.8,13.8A13.815,13.815,0,0,0,540.1,649.806Z" transform="translate(-521.6 -645.1)" fill="#561114"/>
      </g>
      <g id="XMLID_83_" transform="translate(39.339 2.964)">
        <path id="XMLID_72_" d="M557.316,536.929l-4.66-.183c0-.137.457-11.605-3.655-18.962l4.112-2.285C557.864,524,557.361,536.426,557.316,536.929Z" transform="translate(-549 -515.5)" fill="#561114"/>
      </g>
      <g id="XMLID_84_" transform="translate(45.371 2.343)">
        <path id="XMLID_61_" d="M562.2,528.744s4.432-16.4,25.861-14.438C588.061,514.306,584.314,536.557,562.2,528.744Z" transform="translate(-562.2 -514.142)" fill="#54b248"/>
      </g>
      <g id="XMLID_68_" transform="translate(42.962)">
        <path id="XMLID_62_" d="M568.064,529.979a29.356,29.356,0,0,1-9.549-1.782,2.384,2.384,0,0,1-1.508-2.833c.046-.183,5.254-18.322,28.374-16.174a2.247,2.247,0,0,1,1.645.914,2.369,2.369,0,0,1,.457,1.828c-.091.457-1.873,10.783-10.143,15.626A18.12,18.12,0,0,1,568.064,529.979Zm-5.666-5.529c4.98,1.325,9.184,1.005,12.565-.959,4.158-2.467,6.26-6.945,7.219-9.823C569.3,513.531,564.18,520.75,562.4,524.451Z" transform="translate(-556.928 -509.013)" fill="#561114"/>
      </g>
    </g>
  </g>
</svg>
