<svg id="Logo" xmlns="http://www.w3.org/2000/svg" width="170.659" height="40.742" viewBox="0 0 170.659 40.742">
  <path id="Path_1169" data-name="Path 1169" d="M-73.315-11.519q-.308.137-.906.427t-1.384.649l-1.641.752q-.854.393-1.624.769t-1.4.649q-.632.273-.906.41l.068,6.836q0,.1-.239.359a1.583,1.583,0,0,1-.376.325.6.6,0,0,1-.769-.427,5.5,5.5,0,0,1-.308-1.47q-.085-.906-.137-1.931a11.423,11.423,0,0,0-.239-1.88,2.688,2.688,0,0,0-.632-1.316,1.134,1.134,0,0,0-1.265-.188,1.686,1.686,0,0,1-.085-.239,1,1,0,0,1-.051-.239.634.634,0,0,1,.222-.581,4.019,4.019,0,0,1,.5-.256,2.009,2.009,0,0,0,.5-.308.889.889,0,0,0,.222-.7q0-1.367-.1-2.7t-.239-2.7q-.137-1.367-.239-2.717t-.1-2.683v-1.606a.527.527,0,0,1,.291-.342,1.141,1.141,0,0,1,.393-.068,1.532,1.532,0,0,1,.41.068.316.316,0,0,1,.205.342l1.367,11.45a1.308,1.308,0,0,0,.12.342.732.732,0,0,0,.188.308h.308l.547-.137a12.142,12.142,0,0,0,1.436-.53q1.025-.427,2.837-1.3t4.888-2.375l.137-7.759a1,1,0,0,1,.137-.461,1.94,1.94,0,0,1,.342-.461,2.046,2.046,0,0,1,.41-.325.808.808,0,0,1,.41-.12,1.034,1.034,0,0,1,.5.1q.188.1.188.581a.957.957,0,0,1-.137.359q-.137.256-.171.325,0,.137-.017.479t-.017.735v1.248q0,2.905.068,5.811t.273,5.776q.034.342.12,1.213t.188,1.863q.1.991.205,1.9t.171,1.282a.935.935,0,0,0,.034.205,2.425,2.425,0,0,0,.1.308,2.425,2.425,0,0,1,.1.308.421.421,0,0,0,.068.171v.308q-.068.068-.205.188a2.8,2.8,0,0,1-.291.222q-.154.1-.291.188A.455.455,0,0,1-69.351,0a.7.7,0,0,1-.786-.41,4.351,4.351,0,0,1-.479-1.213,10.066,10.066,0,0,1-.239-1.384q-.068-.684-.1-.957,0-.034-.017-.513t-.051-1.213q-.034-.735-.085-1.658t-.12-1.846q-.068-.923-.154-1.743t-.154-1.367Zm6.563,2.358a10.893,10.893,0,0,1,.53-3.4,8.721,8.721,0,0,1,1.538-2.854,7.546,7.546,0,0,1,2.461-1.965,7.362,7.362,0,0,1,3.367-.735,5.177,5.177,0,0,1,1.965.615,4.459,4.459,0,0,1,1.367,1.179,4.554,4.554,0,0,1,.769,1.624,8.5,8.5,0,0,1,.205,1.914,3.7,3.7,0,0,1-.718,2.222A6.172,6.172,0,0,1-57.08-8.9a9.485,9.485,0,0,1-2.358,1.025A8.669,8.669,0,0,1-61.8-7.52h-.837a2.055,2.055,0,0,1-.769-.137,1.244,1.244,0,0,1-.547-.41,1.36,1.36,0,0,1-.205-.82.736.736,0,0,1,.051-.291q.051-.12.291-.171a2.764,2.764,0,0,1,.718-.017q.479.068,1.3.205a4.517,4.517,0,0,0,1.384-.325,13.087,13.087,0,0,0,1.846-.837A7.346,7.346,0,0,0-56.943-11.5a1.89,1.89,0,0,0,.684-1.316,4.244,4.244,0,0,0-.222-1.35,3.443,3.443,0,0,0-.667-1.179,3.465,3.465,0,0,0-1.042-.82,2.415,2.415,0,0,0-1.35-.239,5.3,5.3,0,0,0-2.17.649,5.518,5.518,0,0,0-1.658,1.418,6.782,6.782,0,0,0-1.06,1.931,6.594,6.594,0,0,0-.376,2.222q0,.889.034,1.777a8.152,8.152,0,0,0,.256,1.743A5.8,5.8,0,0,0-63.8-5.024,4.527,4.527,0,0,0-62.361-3.64a8.716,8.716,0,0,0,2.375.991,16.77,16.77,0,0,0,3.555.5l6.118-.41A4.365,4.365,0,0,1-51.7-1.333a8.82,8.82,0,0,1-1.777.769,12.517,12.517,0,0,1-1.863.427A11.92,11.92,0,0,1-57.08,0a10.585,10.585,0,0,1-3.726-.649,9.711,9.711,0,0,1-3.076-1.829,8.447,8.447,0,0,1-2.1-2.871A9.109,9.109,0,0,1-66.753-9.16ZM-26.421-1.2q0-.1.017-.273t.017-.342v-.308l.034-.205q0-.1.051-.581t.12-1.025q.068-.547.1-1.042t.034-.632a18.455,18.455,0,0,0-.308-1.88,11.393,11.393,0,0,0-.735-2.29,7.053,7.053,0,0,0-1.248-1.948,2.336,2.336,0,0,0-1.777-.82,4.639,4.639,0,0,0-1.931.461,8.2,8.2,0,0,0-1.88,1.2,6.273,6.273,0,0,0-1.418,1.692,3.6,3.6,0,0,0-.581,1.948,3.073,3.073,0,0,0,.171,1.008q.171.5.359.974t.359.991a3.329,3.329,0,0,1,.171,1.06,2.322,2.322,0,0,1-.154.82.691.691,0,0,1-.735.41A1.154,1.154,0,0,1-36.76-2.7a9.266,9.266,0,0,1-.718-1.829Q-37.8-5.64-38.162-6.9A15.055,15.055,0,0,0-39.05-9.28a5.994,5.994,0,0,0-1.3-1.829,2.766,2.766,0,0,0-1.965-.718,3.36,3.36,0,0,0-1.641.393,3.468,3.468,0,0,0-1.179,1.042,5.19,5.19,0,0,0-.718,1.47,5.583,5.583,0,0,0-.256,1.675,18.95,18.95,0,0,0,.188,2.683,18.707,18.707,0,0,1,.188,2.649,3.452,3.452,0,0,1-.1.872q-.1.393-.684.393a1.04,1.04,0,0,1-.632-.188,1.575,1.575,0,0,1-.427-.479,2.782,2.782,0,0,1-.273-.649q-.1-.359-.171-.632.068-1.4.017-2.6t-.137-2.273q-.085-1.077-.171-2.17t-.085-2.324V-12.2q0-.171.017-.359t.017-.342v-.222a.587.587,0,0,1,.171-.171.587.587,0,0,0,.171-.171h.171a.954.954,0,0,1,.854.41,1.379,1.379,0,0,1,.273.889,8.257,8.257,0,0,1,.974-.906,4.031,4.031,0,0,1,.82-.5,2.554,2.554,0,0,1,.82-.205q.427-.034,1.042-.034a7.259,7.259,0,0,1,1.794.205,5.336,5.336,0,0,1,1.453.6,4.859,4.859,0,0,1,1.2,1.042,13.092,13.092,0,0,1,1.094,1.436.281.281,0,0,1,.085.017.281.281,0,0,0,.085.017,1.9,1.9,0,0,0,.342-.325q.308-.325.82-.786t1.2-1.025a14.411,14.411,0,0,1,1.436-1.042,9.911,9.911,0,0,1,1.538-.8,4.012,4.012,0,0,1,1.538-.325,4.36,4.36,0,0,1,2.068.479A5.807,5.807,0,0,1-26.8-13.04a8.452,8.452,0,0,1,1.23,1.812,13.816,13.816,0,0,1,.854,2.085,13.433,13.433,0,0,1,.5,2.136,13.64,13.64,0,0,1,.154,1.948q0,.342-.017,1.179A11.134,11.134,0,0,1-24.25-2.17a5.42,5.42,0,0,1-.5,1.538A1.051,1.051,0,0,1-25.7.034a.669.669,0,0,1-.444-.12.751.751,0,0,1-.205-.291,1,1,0,0,1-.068-.376Zm26.25,0q0-.1.017-.273t.017-.342v-.308L-.1-2.324q0-.1.051-.581t.12-1.025q.068-.547.1-1.042t.034-.632A18.456,18.456,0,0,0-.1-7.485a11.393,11.393,0,0,0-.735-2.29,7.053,7.053,0,0,0-1.248-1.948,2.336,2.336,0,0,0-1.777-.82,4.639,4.639,0,0,0-1.931.461,8.2,8.2,0,0,0-1.88,1.2A6.273,6.273,0,0,0-9.092-9.194a3.6,3.6,0,0,0-.581,1.948A3.073,3.073,0,0,0-9.5-6.238q.171.5.359.974t.359.991a3.329,3.329,0,0,1,.171,1.06,2.322,2.322,0,0,1-.154.82.691.691,0,0,1-.735.41A1.154,1.154,0,0,1-10.51-2.7a9.266,9.266,0,0,1-.718-1.829q-.325-1.111-.684-2.375A15.055,15.055,0,0,0-12.8-9.28a5.994,5.994,0,0,0-1.3-1.829,2.766,2.766,0,0,0-1.965-.718,3.36,3.36,0,0,0-1.641.393,3.468,3.468,0,0,0-1.179,1.042,5.19,5.19,0,0,0-.718,1.47,5.583,5.583,0,0,0-.256,1.675,18.95,18.95,0,0,0,.188,2.683,18.707,18.707,0,0,1,.188,2.649,3.452,3.452,0,0,1-.1.872q-.1.393-.684.393A1.04,1.04,0,0,1-20.9-.837a1.575,1.575,0,0,1-.427-.479,2.782,2.782,0,0,1-.273-.649q-.1-.359-.171-.632.068-1.4.017-2.6t-.137-2.273q-.085-1.077-.171-2.17t-.085-2.324V-12.2q0-.171.017-.359t.017-.342v-.222a.587.587,0,0,1,.171-.171.587.587,0,0,0,.171-.171h.171a.954.954,0,0,1,.854.41,1.379,1.379,0,0,1,.273.889,8.257,8.257,0,0,1,.974-.906,4.031,4.031,0,0,1,.82-.5,2.554,2.554,0,0,1,.82-.205q.427-.034,1.042-.034a7.259,7.259,0,0,1,1.794.205,5.336,5.336,0,0,1,1.453.6,4.859,4.859,0,0,1,1.2,1.042,13.092,13.092,0,0,1,1.094,1.436.281.281,0,0,1,.085.017.281.281,0,0,0,.085.017,1.9,1.9,0,0,0,.342-.325q.308-.325.82-.786t1.2-1.025a14.411,14.411,0,0,1,1.436-1.042,9.911,9.911,0,0,1,1.538-.8A4.012,4.012,0,0,1-4.238-14.8a4.36,4.36,0,0,1,2.068.479A5.807,5.807,0,0,1-.547-13.04a8.452,8.452,0,0,1,1.23,1.812,13.816,13.816,0,0,1,.854,2.085,13.434,13.434,0,0,1,.5,2.136,13.64,13.64,0,0,1,.154,1.948q0,.342-.017,1.179A11.134,11.134,0,0,1,2-2.17,5.42,5.42,0,0,1,1.5-.632,1.051,1.051,0,0,1,.547.034.669.669,0,0,1,.1-.085.751.751,0,0,1-.1-.376,1,1,0,0,1-.171-.752Zm3.965-4.58a4.255,4.255,0,0,1,.342-1.333,5.069,5.069,0,0,1,.957-1.47A6.565,6.565,0,0,1,6.733-9.861a7.269,7.269,0,0,1,2.341-.8,10.569,10.569,0,0,1,3.076-.034A16.045,16.045,0,0,1,16-9.673v-.342l-.034-.308a3.715,3.715,0,0,0-.513-1.812,6.546,6.546,0,0,0-1.316-1.658,7.565,7.565,0,0,0-1.726-1.2,3.97,3.97,0,0,0-1.777-.461,1.6,1.6,0,0,0-.6.1,2.922,2.922,0,0,0-.5.256q-.239.154-.461.273a1.1,1.1,0,0,1-.53.12q-.068,0-.068-.034L8.408-14.8q-.068-.068-.188-.171t-.12-.137a2.345,2.345,0,0,1,.222-1.06,1.884,1.884,0,0,1,.615-.718,3.211,3.211,0,0,1,.889-.427,3.5,3.5,0,0,1,1.042-.154,6.642,6.642,0,0,1,2.615.837,10.236,10.236,0,0,1,2.29,1.76A11.7,11.7,0,0,1,17.6-12.424a18.12,18.12,0,0,1,1.316,2.871,13.4,13.4,0,0,1,.7,2.991,11.6,11.6,0,0,1,.034,2.939q-.034,0-.205-.017t-.376-.034a2.193,2.193,0,0,1-.342-.051L18.56-3.76a9.955,9.955,0,0,0-1.606-2.6,8.935,8.935,0,0,0-1.76-1.555A6.368,6.368,0,0,0,13.569-8.7q-.752-.222-1.23-.325-.513,0-1.213.068a11.678,11.678,0,0,0-1.453.239,11.545,11.545,0,0,0-1.521.461,6.416,6.416,0,0,0-1.367.7,3.382,3.382,0,0,0-.957.974,2.4,2.4,0,0,0-.359,1.316,1.764,1.764,0,0,0,.649,1.384,5.3,5.3,0,0,0,1.572.923,8.482,8.482,0,0,0,1.88.5,11.419,11.419,0,0,0,1.538.137,17.012,17.012,0,0,0,1.88-.1q.923-.1,1.829-.239t1.794-.239a15.493,15.493,0,0,1,1.777-.1h.239q.171,0,.359.017t.342.017h.222a.418.418,0,0,1,.308.308,2.491,2.491,0,0,1,.034.41q0,.205-.427.444a7.157,7.157,0,0,1-1.111.479q-.684.239-1.521.5T15.227-.41q-.769.171-1.436.291a6.214,6.214,0,0,1-.94.12A20.688,20.688,0,0,1,9.81-.239,10.39,10.39,0,0,1,6.87-1.111a5.977,5.977,0,0,1-2.2-1.76A4.615,4.615,0,0,1,3.794-5.776Zm18.457,5.5a46.463,46.463,0,0,1-.427-4.836q-.085-2.41-.085-4.836t.068-4.819q.068-2.393.034-4.785a.382.382,0,0,1,.205-.376,1.057,1.057,0,0,1,.479-.1.781.781,0,0,1,.547.222,2.023,2.023,0,0,1,.41.547,3.075,3.075,0,0,1,.256.649,2.18,2.18,0,0,1,.085.53q.205,4.888.273,8.152t0,5.264a26.116,26.116,0,0,1-.222,2.957,3.424,3.424,0,0,1-.393,1.3.532.532,0,0,1-.564.273Q22.593-.205,22.251-.273Zm3.452-5.5a4.255,4.255,0,0,1,.342-1.333A5.069,5.069,0,0,1,27-8.579a6.565,6.565,0,0,1,1.641-1.282,7.269,7.269,0,0,1,2.341-.8A10.569,10.569,0,0,1,34.06-10.7a16.045,16.045,0,0,1,3.845,1.025v-.342l-.034-.308a3.715,3.715,0,0,0-.513-1.812,6.546,6.546,0,0,0-1.316-1.658,7.565,7.565,0,0,0-1.726-1.2,3.97,3.97,0,0,0-1.777-.461,1.6,1.6,0,0,0-.6.1,2.922,2.922,0,0,0-.5.256q-.239.154-.461.273a1.1,1.1,0,0,1-.53.12q-.068,0-.068-.034l-.068-.068q-.068-.068-.188-.171t-.12-.137a2.345,2.345,0,0,1,.222-1.06,1.884,1.884,0,0,1,.615-.718,3.211,3.211,0,0,1,.889-.427,3.5,3.5,0,0,1,1.042-.154,6.642,6.642,0,0,1,2.615.837,10.236,10.236,0,0,1,2.29,1.76,11.7,11.7,0,0,1,1.829,2.444,18.12,18.12,0,0,1,1.316,2.871,13.4,13.4,0,0,1,.7,2.991,11.6,11.6,0,0,1,.034,2.939q-.034,0-.205-.017t-.376-.034a2.193,2.193,0,0,1-.342-.051l-.171-.034a9.955,9.955,0,0,0-1.606-2.6A8.935,8.935,0,0,0,37.1-7.913,6.368,6.368,0,0,0,35.479-8.7q-.752-.222-1.23-.325-.513,0-1.213.068a11.678,11.678,0,0,0-1.453.239,11.545,11.545,0,0,0-1.521.461,6.416,6.416,0,0,0-1.367.7,3.382,3.382,0,0,0-.957.974,2.4,2.4,0,0,0-.359,1.316,1.764,1.764,0,0,0,.649,1.384,5.3,5.3,0,0,0,1.572.923,8.482,8.482,0,0,0,1.88.5,11.418,11.418,0,0,0,1.538.137,17.012,17.012,0,0,0,1.88-.1q.923-.1,1.829-.239t1.794-.239a15.493,15.493,0,0,1,1.777-.1h.239q.171,0,.359.017t.342.017h.222a.418.418,0,0,1,.308.308,2.491,2.491,0,0,1,.034.41q0,.205-.427.444a7.157,7.157,0,0,1-1.111.479q-.684.239-1.521.5T37.136-.41q-.769.171-1.436.291a6.214,6.214,0,0,1-.94.12,20.688,20.688,0,0,1-3.042-.239,10.39,10.39,0,0,1-2.939-.872,5.977,5.977,0,0,1-2.2-1.76A4.615,4.615,0,0,1,25.7-5.776ZM38.179,9.5a1.281,1.281,0,0,1,.017-.854,1.612,1.612,0,0,1,.427-.615,1.311,1.311,0,0,1,.6-.308.678.678,0,0,1,.547.085.762.762,0,0,1,.273.564A2.52,2.52,0,0,1,39.819,9.5a2.218,2.218,0,0,0,.632,1.47,6.455,6.455,0,0,0,1.641,1.3,17.217,17.217,0,0,0,2.2,1.06q1.2.479,2.324.82a20.218,20.218,0,0,0,2.017.513,6.648,6.648,0,0,0,1.23.171,2.367,2.367,0,0,0,1.453-.444,3.921,3.921,0,0,0,1.025-1.162A6.755,6.755,0,0,0,53.03,11.6a14.709,14.709,0,0,0,.393-1.812,16.112,16.112,0,0,0,.171-1.76q.034-.854.034-1.436,0-.273-.051-1.008T53.423,3.9q-.1-.957-.239-1.982T52.876,0a10.884,10.884,0,0,0-.359-1.436q-.188-.547-.393-.547a2.033,2.033,0,0,0-.8.205q-.461.205-.957.444t-1.008.444a2.663,2.663,0,0,1-.991.205,4.587,4.587,0,0,1-1.88-.41A5.386,5.386,0,0,1,44.9-2.153a5.119,5.119,0,0,1-1.077-1.538,4.357,4.357,0,0,1-.41-1.846,8.618,8.618,0,0,1,.6-3.076,10.55,10.55,0,0,1,1.641-2.871A8.75,8.75,0,0,1,48.108-13.6a5.946,5.946,0,0,1,3.025-.82,3.421,3.421,0,0,1,2,1.555,9.877,9.877,0,0,1,1.2,2.991,26.865,26.865,0,0,1,.615,3.948q.188,2.17.256,4.426t.12,4.426q.051,2.17.256,3.948,0,.786-.085,1.863a22.1,22.1,0,0,1-.291,2.2,17.4,17.4,0,0,1-.564,2.239,7.968,7.968,0,0,1-.94,1.982,4.748,4.748,0,0,1-1.418,1.4,3.534,3.534,0,0,1-1.931.53,13.475,13.475,0,0,1-2.136-.205,17.308,17.308,0,0,1-2.6-.649,21.4,21.4,0,0,1-2.683-1.094,13.082,13.082,0,0,1-2.393-1.487,7.362,7.362,0,0,1-1.709-1.88A4.217,4.217,0,0,1,38.179,9.5Zm7.178-15.62a3.7,3.7,0,0,0,.188,1.179,3.2,3.2,0,0,0,.547,1.008,2.558,2.558,0,0,0,.889.7,2.672,2.672,0,0,0,1.179.256,4.349,4.349,0,0,0,2.649-.684,3.489,3.489,0,0,0,1.248-1.709A6.874,6.874,0,0,0,52.4-7.554q-.034-1.2-.1-2.153a6.759,6.759,0,0,0-.068-.957,2.885,2.885,0,0,0-.273-.889,1.649,1.649,0,0,0-.564-.649,1.6,1.6,0,0,0-.906-.239,3.707,3.707,0,0,0-2.085.632,6.089,6.089,0,0,0-1.624,1.572,7.908,7.908,0,0,0-1.042,2.051A6.476,6.476,0,0,0,45.356-6.118ZM56.226-9.16a10.893,10.893,0,0,1,.53-3.4,8.721,8.721,0,0,1,1.538-2.854,7.546,7.546,0,0,1,2.461-1.965,7.362,7.362,0,0,1,3.367-.735,5.177,5.177,0,0,1,1.965.615,4.459,4.459,0,0,1,1.367,1.179,4.554,4.554,0,0,1,.769,1.624,8.5,8.5,0,0,1,.205,1.914,3.7,3.7,0,0,1-.718,2.222A6.172,6.172,0,0,1,65.9-8.9,9.484,9.484,0,0,1,63.54-7.878a8.669,8.669,0,0,1-2.358.359h-.837a2.055,2.055,0,0,1-.769-.137,1.244,1.244,0,0,1-.547-.41,1.36,1.36,0,0,1-.205-.82.736.736,0,0,1,.051-.291q.051-.12.291-.171a2.764,2.764,0,0,1,.718-.017q.479.068,1.3.205a4.517,4.517,0,0,0,1.384-.325,13.087,13.087,0,0,0,1.846-.837A7.346,7.346,0,0,0,66.035-11.5a1.89,1.89,0,0,0,.684-1.316,4.244,4.244,0,0,0-.222-1.35,3.442,3.442,0,0,0-.667-1.179,3.465,3.465,0,0,0-1.042-.82,2.415,2.415,0,0,0-1.35-.239,5.3,5.3,0,0,0-2.17.649,5.518,5.518,0,0,0-1.658,1.418,6.782,6.782,0,0,0-1.06,1.931,6.594,6.594,0,0,0-.376,2.222q0,.889.034,1.777a8.152,8.152,0,0,0,.256,1.743,5.8,5.8,0,0,0,.718,1.641A4.527,4.527,0,0,0,60.618-3.64a8.716,8.716,0,0,0,2.375.991,16.77,16.77,0,0,0,3.555.5l6.118-.41a4.365,4.365,0,0,1-1.384,1.23A8.82,8.82,0,0,1,69.5-.564a12.516,12.516,0,0,1-1.863.427A11.92,11.92,0,0,1,65.9,0a10.585,10.585,0,0,1-3.726-.649A9.711,9.711,0,0,1,59.1-2.478a8.447,8.447,0,0,1-2.1-2.871A9.109,9.109,0,0,1,56.226-9.16ZM77.383,0a18.585,18.585,0,0,1-1.3-2.974,32.815,32.815,0,0,1-.923-3.247q-.376-1.641-.6-3.2t-.291-2.82a4.566,4.566,0,0,0-.034-.53,3.466,3.466,0,0,1-.017-.6,2.384,2.384,0,0,1,.1-.581,1.155,1.155,0,0,1,.291-.479h.068q.034,0,.034-.017t.034-.017q.034,0,.034.017t.068.017h.068q.068.034.342.137a1.122,1.122,0,0,1,.342.171q.615-.205,1.265-.5t1.316-.547a11.586,11.586,0,0,1,1.35-.427,5.486,5.486,0,0,1,1.333-.171q.479,0,.837.034a5.241,5.241,0,0,1,.718.12q.359.085.769.205t.957.291q.273.205.5.393a2.923,2.923,0,0,1,.41.427,1.738,1.738,0,0,1,.291.581,3.171,3.171,0,0,1,.1.889,3.946,3.946,0,0,1-1.282-.085q-.735-.154-1.538-.393t-1.658-.41a6.841,6.841,0,0,0-1.641-.137,3.075,3.075,0,0,0-1.47.444,3.094,3.094,0,0,0-1.265,1.23,7.182,7.182,0,0,0-.205,1.948,10.04,10.04,0,0,0,.239,1.863,15.526,15.526,0,0,0,.53,1.812q.325.906.615,1.812t.53,1.794a9.712,9.712,0,0,1,.308,1.812,1.116,1.116,0,0,1-.376.735A1.155,1.155,0,0,1,77.383,0Z" transform="translate(85.21 23.652)" fill="#fff"/>
</svg>
