<svg id="orange" xmlns="http://www.w3.org/2000/svg" width="93.465" height="116.049" viewBox="0 0 93.465 116.049">
  <g id="XMLID_10_" transform="translate(2.345 24.928)">
    <circle id="XMLID_280_" cx="44.411" cy="44.411" r="44.411" transform="translate(0)" fill="#f8951d"/>
  </g>
  <g id="XMLID_34_" transform="translate(22.273 25.65)">
    <path id="XMLID_315_" d="M553.788,235.3a44.426,44.426,0,0,1-24.437,81.517,45.673,45.673,0,0,1-8.251-.766A44.422,44.422,0,1,0,553.788,235.3Z" transform="translate(-521.1 -235.3)" fill="#ed8022"/>
  </g>
  <g id="XMLID_9_" transform="translate(0 22.539)">
    <path id="XMLID_282_" d="M518.455,321.91a46.755,46.755,0,1,1,46.71-46.71A46.8,46.8,0,0,1,518.455,321.91Zm0-88.821A42.111,42.111,0,1,0,560.566,275.2,42.159,42.159,0,0,0,518.455,233.089Z" transform="translate(-471.7 -228.4)" fill="#561114"/>
  </g>
  <g id="XMLID_11_" transform="translate(44.343 6.352)">
    <path id="XMLID_281_" d="M570.163,211.3a31.232,31.232,0,0,1,4.464-18.8l3.923,2.48a26.7,26.7,0,0,0-3.787,15.78Z" transform="translate(-570.05 -192.5)" fill="#561114"/>
  </g>
  <g id="XMLID_13_" transform="translate(19.974 2.306)">
    <path id="XMLID_276_" d="M542.692,198.618S538.138,181.666,516,183.695C516,183.74,519.832,206.689,542.692,198.618Z" transform="translate(-516 -183.526)" fill="#54b248"/>
  </g>
  <g id="XMLID_12_" transform="translate(17.602)">
    <path id="XMLID_277_" d="M530.741,199.867a18.575,18.575,0,0,1-9.558-2.525c-8.476-5-10.325-15.6-10.415-16.051a2.338,2.338,0,0,1,.451-1.8,2.563,2.563,0,0,1,1.623-.9c23.806-2.164,29.081,16.412,29.126,16.592a2.311,2.311,0,0,1-1.488,2.8A28.2,28.2,0,0,1,530.741,199.867ZM516.088,183.05c.992,2.931,3.156,7.71,7.529,10.325,3.517,2.074,7.935,2.39,13.12.992C534.889,190.534,529.479,182.87,516.088,183.05Z" transform="translate(-510.741 -178.411)" fill="#561114"/>
  </g>
</svg>
