<svg id="pear" xmlns="http://www.w3.org/2000/svg" width="116.599" height="150.503" viewBox="0 0 116.599 150.503">
  <g id="Group_33" data-name="Group 33" transform="translate(12.357 -538.475) rotate(18)">
    <g id="XMLID_53_" transform="translate(193.554 503.296)">
      <g id="XMLID_31_" transform="translate(2.218 24.069)">
        <path id="XMLID_250_" d="M269.327,599.9c-9.31-16.054-12.008-26.321-16.75-35.066-4.786-8.745-16.315-5.7-16.315-5.7s-11.529-3.045-16.315,5.7S212.508,583.8,203.2,599.9c-9.31,16.054-7.048,64.823,33.064,64.823S278.637,615.952,269.327,599.9Z" transform="translate(-198.653 -558.62)" fill="#54b248"/>
      </g>
      <g id="XMLID_65_" transform="translate(21.12 24.071)">
        <path id="XMLID_313_" d="M293.872,599.9c-9.31-16.054-12.008-26.321-16.75-35.066-3.089-5.656-9.006-6.4-12.791-6.178,4.655,9.789,23.8,53.382,9.136,80.7-6.787,12.66-19.23,18.4-31.368,20.752a37.241,37.241,0,0,0,18.751,4.612C300.963,664.724,303.182,615.955,293.872,599.9Z" transform="translate(-242.1 -558.625)" fill="#3e9945"/>
      </g>
      <g id="XMLID_51_" transform="translate(0 21.803)">
        <path id="XMLID_252_" d="M233.382,664c-18.577,0-28.235-9.963-33.064-18.359-9.049-15.706-8.31-38.894-1.958-49.814a187.645,187.645,0,0,0,11.4-23.45c1.827-4.307,3.393-8.005,5.308-11.572,4.264-7.788,13.487-8.005,18.272-6.917,4.786-1.044,14.009-.87,18.272,6.917a115.756,115.756,0,0,1,5.308,11.572,194.013,194.013,0,0,0,11.4,23.45c6.352,10.964,7.135,34.109-1.958,49.858C261.617,654.035,251.959,664,233.382,664Zm-4.568-106.11c-3.176,0-7.483.87-9.745,5.09-1.827,3.35-3.35,6.961-5.134,11.137a194.9,194.9,0,0,1-11.66,23.972c-4.96,8.571-7.135,29.627,1.958,45.376,6.178,10.7,15.967,16.1,29.192,16.1s23.014-5.438,29.192-16.1c9.049-15.749,6.917-36.806,1.958-45.376h0a194.9,194.9,0,0,1-11.66-23.972c-1.784-4.177-3.306-7.788-5.134-11.137-3.872-7.135-13.661-4.655-13.791-4.612a2.482,2.482,0,0,1-1.131,0A17.735,17.735,0,0,0,228.814,557.887Z" transform="translate(-193.554 -553.411)" fill="#561114"/>
      </g>
      <g id="XMLID_33_" transform="translate(31.126 1.568)">
        <path id="XMLID_251_" d="M275.759,530.263l-4.438-.653,2.219.348-2.219-.348c0-.13,1.914-13.7-6.221-18.925l2.393-3.785C278.108,513.687,275.889,529.566,275.759,530.263Z" transform="translate(-265.1 -506.9)" fill="#561114"/>
      </g>
      <g id="XMLID_52_" transform="translate(39.61 2.232)">
        <path id="XMLID_71_" d="M284.6,522.989s4.394-16.358,25.755-14.4C310.312,508.589,306.614,530.733,284.6,522.989Z" transform="translate(-284.6 -508.426)" fill="#54b248"/>
      </g>
      <g id="XMLID_46_" transform="translate(37.36)">
        <path id="XMLID_247_" d="M290.379,523.963a28.8,28.8,0,0,1-9.441-1.784,2.27,2.27,0,0,1-1.436-2.7c.044-.174,5.177-18.142,28.1-16.01a2.14,2.14,0,0,1,1.566.87,2.256,2.256,0,0,1,.435,1.74c-.087.435-1.871,10.659-10.05,15.488A17.624,17.624,0,0,1,290.379,523.963Zm-5.786-5.308c5.047,1.349,9.31,1.044,12.7-.957,4.264-2.523,6.308-7.091,7.265-9.919C291.641,507.561,286.377,514.957,284.593,518.655Z" transform="translate(-279.428 -503.296)" fill="#561114"/>
      </g>
    </g>
  </g>
</svg>
