<svg id="strawberry" xmlns="http://www.w3.org/2000/svg" width="141.502" height="150.518" viewBox="0 0 141.502 150.518">
  <g id="XMLID_102_" transform="matrix(0.921, -0.391, 0.391, 0.921, -874.925, -154.534)">
    <g id="XMLID_101_" transform="translate(731.498 546.836)">
      <path id="XMLID_49_" d="M805.061,582.006c-11.294,1.656-21.314,2.5-21.314,2.5s-10.02-.807-21.314-2.5c-11.294-1.656-27.556,3.694-27.938,26.282s25.56,65.429,49.252,65.429,49.634-42.8,49.252-65.429S816.355,580.307,805.061,582.006Z" transform="translate(-734.49 -581.715)" fill="#f04d49"/>
    </g>
    <g id="XMLID_107_" transform="translate(757.996 546.83)">
      <path id="XMLID_296_" d="M819.658,673.666c23.692,0,49.634-42.8,49.252-65.429-.34-19.489-12.483-26.155-23.1-26.537,4.84,17.2,7.3,45.474-15.795,64.41A79.166,79.166,0,0,1,796.9,662.33C804.076,669.165,812.015,673.666,819.658,673.666Z" transform="translate(-796.9 -581.7)" fill="#e53a39"/>
    </g>
    <g id="XMLID_100_" transform="translate(729.29 544.61)">
      <path id="XMLID_57_" d="M780.755,672.823c-8.237,0-17.2-4.713-25.942-13.587-14.563-14.818-25.773-38.553-25.518-54.05.17-9.893,3.4-17.79,9.3-22.8,5.477-4.671,13.417-6.751,21.145-5.6,10.275,1.529,19.573,2.335,20.974,2.463,1.4-.128,10.7-.934,20.975-2.463h0c7.77-1.146,15.667.934,21.145,5.6,5.9,5.01,9.129,12.907,9.3,22.8.255,15.5-10.912,39.232-25.518,54.05C797.993,668.153,788.992,672.823,780.755,672.823Zm-25.178-91.966a21.858,21.858,0,0,0-14.1,4.883c-4.968,4.246-7.6,10.827-7.77,19.531-.255,14.224,10.615,37.067,24.244,50.908,7.9,8.025,15.795,12.271,22.8,12.271,7.048,0,14.946-4.246,22.8-12.271,13.629-13.842,24.5-36.685,24.244-50.908-.17-8.746-2.76-15.328-7.77-19.531-4.543-3.864-11.167-5.562-17.705-4.628-11.251,1.656-21.357,2.505-21.442,2.505h-.34c-.085,0-10.19-.849-21.442-2.505A24.156,24.156,0,0,0,755.577,580.857Z" transform="translate(-729.29 -576.472)" fill="#561114"/>
    </g>
    <g id="XMLID_85_" transform="translate(748.768 538.835)">
      <path id="XMLID_28_" d="M826.47,571.417c7.133.382,20.338,16.516,15.54,14.945-4.84-1.528-18.13-3.524-22.461-2.93s-4.925,19.234-9.681,18.427-5.435-8.025-7.218-13.544-4.373-3.269-14.776-2.972-16.729-2.378-9.808-6.708,8.831-7.855,8.831-7.855-7.77-4.543-10.657-4.84,11.209-5.732,21.1-1.4c9.893,4.373,9,4.246,14.648,2.972s15.073-3.864,19.616-1.571C836.235,568.275,826.47,571.417,826.47,571.417Z" transform="translate(-775.164 -562.871)" fill="#54b248"/>
    </g>
    <g id="XMLID_99_" transform="translate(746.543 536.675)">
      <path id="XMLID_45_" d="M807.236,601.183a4.663,4.663,0,0,1-.764-.085c-5.137-.892-6.624-6.5-7.9-11.464-.34-1.274-.637-2.463-1.019-3.567-.764-2.378-.764-2.42-5.859-1.911-1.783.17-4.034.382-6.793.467-6.072.17-13.587-.467-14.818-4.5-.637-2.165.637-4.246,3.779-6.2a31.8,31.8,0,0,0,6.709-5.35c-2.887-1.571-6.284-3.227-7.6-3.354a2.367,2.367,0,0,1-1.444-4.2c2.25-2.038,14.606-5.35,23.692-1.359l2,.892c6.793,3.015,6.793,3.015,10.615,2.123l.722-.17c.552-.127,1.146-.255,1.741-.425,6.114-1.444,14.521-3.4,19.361-1.019,2.25,1.1,2.463,2.717,2.42,3.566-.127,1.444-1.274,2.675-2.887,3.694,5.69,3.4,11.464,10.19,12.7,13.162.722,1.741.212,2.845-.34,3.4a2.883,2.883,0,0,1-3.184.637c-4.671-1.486-17.451-3.312-21.357-2.845-.934.764-2.123,5.01-2.8,7.558C812.67,595.621,811.1,601.183,807.236,601.183Zm-12.228-21.569c3.142,0,5.35.934,6.751,5.18.382,1.231.722,2.547,1.062,3.779.976,3.779,2.038,7.643,4.246,8.237.977-.849,2.208-5.307,2.887-7.727,1.528-5.477,2.8-10.19,6.284-10.7,3.906-.552,13.714.764,19.871,2.08-3.057-3.821-9.256-9.6-12.78-9.808a2.141,2.141,0,0,1-2.038-1.911,2.234,2.234,0,0,1,1.486-2.378,20.794,20.794,0,0,0,3.991-1.741c-3.779-1.061-11.039.637-15.5,1.7-.637.127-1.231.3-1.783.425l-.722.17c-5.223,1.189-5.817.934-13.332-2.378l-2-.892c-4.628-2.038-10.445-1.656-14.436-.807,2.675,1.274,5.222,2.717,5.987,3.184a2.2,2.2,0,0,1,.807,2.93c-.212.425-2.42,4.161-9.6,8.662a8.238,8.238,0,0,0-1.7,1.316c1.019.637,4.2,1.486,10.275,1.316,2.633-.085,4.755-.3,6.5-.425C792.63,579.741,793.861,579.614,795.007,579.614Z" transform="translate(-769.925 -557.783)" fill="#561114"/>
    </g>
    <g id="XMLID_103_" transform="translate(754.133 594.936)">
      <rect id="XMLID_44_" width="4.925" height="4.373" transform="translate(0 0)" fill="#561114"/>
    </g>
    <g id="XMLID_104_" transform="translate(779.141 617.227)">
      <rect id="XMLID_43_" width="4.416" height="4.373" transform="translate(0 0)" fill="#561114"/>
    </g>
    <g id="XMLID_105_" transform="translate(806.697 587.421)">
      <rect id="XMLID_35_" width="4.501" height="4.373" transform="translate(0 0)" fill="#561114"/>
    </g>
    <g id="XMLID_106_" transform="translate(755.152 572.773)">
      <rect id="XMLID_30_" width="5.52" height="4.373" transform="translate(0)" fill="#561114"/>
    </g>
    <g id="XMLID_97_" transform="translate(778.253 521.1)">
      <path id="XMLID_29_" d="M844.986,549.93c-.127-.807-2.93-19.828,8.874-28.83l2.632,3.482c-9.723,7.43-7.218,24.5-7.218,24.711Z" transform="translate(-844.607 -521.1)" fill="#561114"/>
    </g>
  </g>
</svg>
